#!OML:ASF I:\Actors\actors\Patient Classification 1\Patient 1\Session 1\Subject1.ASF
:FULLY-SPECIFIED
:DEGREES
1932
root 0.646066 17.6814 9.36903 31.032 12.495 -9.66562
lowerback 13.2099 0.206523 6.81094
upperback -10.7526 1.7974 -0.407723
thorax -19.9883 -0.196109 -4.86049
lowerneck -15.474 -6.81967 -4.27067
upperneck 21.4586 -10.8104 9.73998
head 10.1978 -4.26528 2.64524
rclavicle -1.98785e-015 -3.33958e-014
rhumerus 7.19626 -64.4815 -0.14396
rradius 28.7011
rwrist 42.6863
rhand 22.6319 -21.2323
rfingers 7.12502
rthumb 46.9785 -403.908
lclavicle -1.98785e-015 -3.33958e-014
lhumerus 1.49741 48.2702 -0.670035
lradius 47.4432
lwrist -2.53683
lhand -7.79038 -10.9488
lfingers 7.12502
lthumb 18.1105 18.2281
rfemur -20.394 23.0607 17.1186
rtibia -5.21125
rfoot -17.5339 -32.2307
rtoes 23.2234
lfemur -30.7925 -57.7166 24.1558
ltibia -9.55737
lfoot -63.2966 48.7444
ltoes 49.1201
1933
root 0.635353 17.68 9.36973 31.0824 12.4163 -9.66712
lowerback 13.2513 0.244744 6.77054
upperback -10.72 1.81623 -0.56206
thorax -19.965 -0.197867 -5.02854
lowerneck -15.5189 -6.80763 -4.10501
upperneck 21.2857 -10.8214 9.76005
head 10.1375 -4.25949 2.62105
rclavicle -4.01545e-014 4.13472e-014
rhumerus 6.8032 -63.0884 -0.303022
rradius 28.6386
rwrist 41.9736
rhand 22.7783 -21.4102
rfingers 7.12502
rthumb 47.1139 -404.026
lclavicle -4.01545e-014 4.13472e-014
lhumerus 1.08369 48.5562 -0.216579
lradius 47.409
lwrist -2.14734
lhand -7.83213 -11.0479
lfingers 7.12502
lthumb 18.0704 18.1327
rfemur -20.4586 23.0595 17.1144
rtibia -5.21844
rfoot -17.4688 -32.1938
rtoes 23.0848
lfemur -30.8287 -57.619 24.2137
ltibia -9.53344
lfoot -63.4764 48.5332
ltoes 49.223
1934
root 0.623614 17.6769 9.37158 31.1576 12.4191 -9.68697
lowerback 13.2079 0.25538 6.76125
upperback -10.7025 1.7992 -0.706543
thorax -19.9095 -0.217153 -5.18905
lowerneck -15.4604 -6.7649 -3.97729
upperneck 21.0607 -10.7951 9.86084
head 10.0438 -4.23651 2.63955
rclavicle -2.18663e-014 1.98785e-014
rhumerus 7.85991 -63.3622 -1.96284
rradius 28.5448
rwrist 43.1913
rhand 23.1915 -20.9112
rfingers 7.12502
rthumb 47.4958 -403.356
lclavicle -2.18663e-014 1.98785e-014
lhumerus 0.560927 48.8255 0.118397
lradius 47.4534
lwrist -1.77376
lhand -7.93657 -10.7121
lfingers 7.12502
lthumb 17.9699 18.4778
rfemur -20.5386 23.015 17.1896
rtibia -5.2379
rfoot -17.4545 -32.178
rtoes 23.0217
lfemur -30.9582 -57.535 24.436
ltibia -9.55757
lfoot -63.6394 48.3434
ltoes 49.4118
1935
root 0.610862 17.6734 9.3743 31.2322 12.4459 -9.69548
lowerback 13.1855 0.262197 6.76553
upperback -10.7061 1.78019 -0.867096
thorax -19.8973 -0.243682 -5.37736
lowerneck -15.449 -6.76449 -4.01216
upperneck 20.9228 -10.829 10.0926
head 10.0133 -4.23507 2.72069
rclavicle 1.47101e-014 -3.49861e-014
rhumerus 8.04132 -62.652 -2.67372
rradius 28.5399
rwrist 43.6139
rhand 23.6077 -20.6764
rfingers 7.12502
rthumb 47.8799 -402.945
lclavicle 1.47101e-014 -3.49861e-014
lhumerus 0.0768298 49.0812 0.449564
lradius 47.4362
lwrist -1.68472
lhand -8.16884 -10.7721
lfingers 7.12502
lthumb 17.7464 18.4381
rfemur -20.6044 22.9499 17.2779
rtibia -5.26407
rfoot -17.531 -32.1654
rtoes 23.0269
lfemur -31.0799 -57.4751 24.6683
ltibia -9.62342
lfoot -63.7468 48.2425
ltoes 49.5532
1936
root 0.596622 17.6698 9.37773 31.2684 12.4523 -9.68228
lowerback 13.2312 0.276684 6.70122
upperback -10.6932 1.7635 -1.01306
thorax -19.91 -0.25904 -5.51247
lowerneck -15.6275 -6.80254 -4.14446
upperneck 20.926 -10.9058 10.3234
head 10.0784 -4.24907 2.80684
rclavicle 1.82882e-014 1.59028e-014
rhumerus 8.12473 -61.6819 -3.16926
rradius 28.5117
rwrist 43.8512
rhand 24.0831 -20.7634
rfingers 7.12502
rthumb 48.318 -402.826
lclavicle 1.82882e-014 1.59028e-014
lhumerus -0.127015 49.8286 1.12651
lradius 47.1602
lwrist -2.30879
lhand -8.40046 -11.3766
lfingers 7.12502
lthumb 17.5235 17.8536
rfemur -20.6268 22.8909 17.3498
rtibia -5.28259
rfoot -17.6317 -32.0922
rtoes 23.1809
lfemur -31.1217 -57.4581 24.787
ltibia -9.65782
lfoot -63.8439 48.1166
ltoes 49.6372
1937
root 0.581675 17.6661 9.3823 31.2589 12.4647 -9.68772
lowerback 13.2983 0.276832 6.60823
upperback -10.6495 1.72377 -1.13812
thorax -19.9002 -0.276503 -5.59949
lowerneck -15.8023 -6.83101 -4.28708
upperneck 20.8356 -10.9727 10.6211
head 10.1142 -4.25554 2.91921
rclavicle -5.1684e-015 1.59028e-015
rhumerus 8.54491 -60.9705 -3.93234
rradius 28.3789
rwrist 44.1776
rhand 24.4421 -20.5733
rfingers 7.12502
rthumb 48.6485 -402.478
lclavicle -5.1684e-015 1.59028e-015
lhumerus -0.290694 50.8139 1.82594
lradius 46.7629
lwrist -3.22194
lhand -8.67447 -11.826
lfingers 7.12502
lthumb 17.2598 17.4275
rfemur -20.6066 22.8411 17.462
rtibia -5.2776
rfoot -17.6354 -32.0104
rtoes 23.169
lfemur -31.0561 -57.4975 24.8175
ltibia -9.68222
lfoot -63.9048 48.0518
ltoes 49.6663
1938
root 0.568079 17.6631 9.38721 31.2484 12.5322 -9.7155
lowerback 13.3606 0.256982 6.58218
upperback -10.6132 1.66986 -1.27193
thorax -19.8997 -0.311312 -5.7309
lowerneck -15.8433 -6.8391 -4.34698
upperneck 20.6147 -11.0221 10.9354
head 10.0733 -4.25568 3.0289
rclavicle 4.77083e-015 6.36111e-015
rhumerus 9.04852 -60.4833 -4.79656
rradius 28.248
rwrist 44.5277
rhand 24.5918 -20.1596
rfingers 7.12502
rthumb 48.7861 -401.997
lclavicle 4.77083e-015 6.36111e-015
lhumerus -0.743515 51.2043 1.95152
lradius 46.4219
lwrist -3.42099
lhand -8.7166 -11.77
lfingers 7.12502
lthumb 17.2192 17.4871
rfemur -20.5829 22.7528 17.6172
rtibia -5.26604
rfoot -17.5631 -31.9797
rtoes 22.9564
lfemur -31.0539 -57.5604 24.9403
ltibia -9.70119
lfoot -63.9682 48.0681
ltoes 49.651
1939
root 0.55315 17.6607 9.39246 31.2818 12.6193 -9.74293
lowerback 13.3785 0.243882 6.51839
upperback -10.6 1.61394 -1.40876
thorax -19.9003 -0.342419 -5.84296
lowerneck -15.855 -6.85552 -4.28141
upperneck 20.4321 -11.0859 11.116
head 10.0257 -4.2672 3.06977
rclavicle 1.63003e-014 -1.90833e-014
rhumerus 9.61886 -60.2121 -5.81131
rradius 28.2275
rwrist 45.0194
rhand 24.6431 -19.8949
rfingers 7.12502
rthumb 48.8333 -401.709
lclavicle 1.63003e-014 -1.90833e-014
lhumerus -1.27811 51.2737 1.74496
lradius 46.0132
lwrist -3.12956
lhand -8.48546 -11.4433
lfingers 7.12502
lthumb 17.4417 17.7942
rfemur -20.6049 22.6441 17.7623
rtibia -5.27105
rfoot -17.579 -31.9087
rtoes 22.9848
lfemur -31.1966 -57.5784 25.1994
ltibia -9.6864
lfoot -64.0948 48.0205
ltoes 49.6748
1940
root 0.535752 17.6583 9.398 31.3656 12.6886 -9.73663
lowerback 13.3242 0.255847 6.34411
upperback -10.5904 1.56336 -1.54184
thorax -19.8545 -0.35246 -5.88627
lowerneck -15.8828 -6.89268 -4.26291
upperneck 20.2391 -11.1714 11.3228
head 9.98417 -4.28952 3.12367
rclavicle 5.1684e-015 0
rhumerus 10.1348 -59.9084 -6.74243
rradius 28.2228
rwrist 45.2357
rhand 24.4275 -19.7929
rfingers 7.12502
rthumb 48.635 -401.704
lclavicle 5.1684e-015 0
lhumerus -1.78042 51.3661 1.57653
lradius 45.6097
lwrist -2.81506
lhand -8.36019 -11.2832
lfingers 7.12502
lthumb 17.5622 17.9435
rfemur -20.6831 22.5215 17.8341
rtibia -5.25475
rfoot -17.5603 -31.8068
rtoes 22.9395
lfemur -31.4054 -57.5473 25.4943
ltibia -9.69271
lfoot -64.3052 47.8715
ltoes 49.8551
1941
root 0.518036 17.6561 9.40398 31.4071 12.7596 -9.71494
lowerback 13.326 0.284665 6.15075
upperback -10.5726 1.53285 -1.69328
thorax -19.8329 -0.354227 -5.94871
lowerneck -15.8758 -6.92279 -4.26079
upperneck 19.9786 -11.2422 11.5633
head 9.91451 -4.30701 3.19436
rclavicle 5.56597e-015 -1.11319e-014
rhumerus 10.5297 -59.6124 -7.52502
rradius 28.2094
rwrist 45.1112
rhand 24.2834 -19.9543
rfingers 7.12502
rthumb 48.5024 -401.929
lclavicle 5.56597e-015 -1.11319e-014
lhumerus -2.27323 51.434 1.55391
lradius 45.4005
lwrist -2.58999
lhand -8.53945 -11.3932
lfingers 7.12502
lthumb 17.3897 17.8489
rfemur -20.7025 22.3903 17.9115
rtibia -5.22088
rfoot -17.4551 -31.7028
rtoes 22.7171
lfemur -31.5087 -57.5712 25.69
ltibia -9.73395
lfoot -64.5282 47.7368
ltoes 50.0114
1942
root 0.499921 17.6548 9.4118 31.3476 12.879 -9.74471
lowerback 13.4262 0.309056 6.00263
upperback -10.5335 1.51443 -1.83239
thorax -19.8492 -0.357457 -6.02915
lowerneck -15.8731 -6.94485 -4.23446
upperneck 19.7353 -11.2987 11.7628
head 9.84648 -4.31993 3.24883
rclavicle -1.47101e-014 1.74931e-014
rhumerus 10.9148 -59.5026 -8.3741
rradius 28.2693
rwrist 45.0988
rhand 24.3969 -20.1776
rfingers 7.12502
rthumb 48.6069 -402.102
lclavicle -1.47101e-014 1.74931e-014
lhumerus -2.78251 51.6326 1.66442
lradius 45.3414
lwrist -2.63506
lhand -9.03103 -11.4109
lfingers 7.12502
lthumb 16.9166 17.8724
rfemur -20.5875 22.2697 18.1327
rtibia -5.23237
rfoot -17.3041 -31.6068
rtoes 22.4554
lfemur -31.4577 -57.6977 25.8229
ltibia -9.78472
lfoot -64.6809 47.701
ltoes 49.9717
1943
root 0.481344 17.6549 9.41932 31.3045 13.049 -9.76372
lowerback 13.5271 0.333917 5.87578
upperback -10.4948 1.50222 -1.96694
thorax -19.866 -0.360415 -6.1182
lowerneck -15.8949 -7.00431 -4.31539
upperneck 19.5245 -11.4053 12.0507
head 9.81234 -4.3525 3.34385
rclavicle 3.49861e-014 -2.54444e-014
rhumerus 10.6918 -58.6784 -8.42701
rradius 28.1542
rwrist 44.4852
rhand 24.2654 -20.2194
rfingers 7.12502
rthumb 48.4859 -402.202
lclavicle 3.49861e-014 -2.54444e-014
lhumerus -3.19418 51.8683 1.84639
lradius 45.2453
lwrist -2.78215
lhand -9.46455 -11.3662
lfingers 7.12502
lthumb 16.4992 17.9523
rfemur -20.5078 22.0935 18.3534
rtibia -5.2335
rfoot -17.2195 -31.4684
rtoes 22.3407
lfemur -31.5353 -57.8355 26.0752
ltibia -9.80248
lfoot -64.8376 47.6387
ltoes 49.9574
1944
root 0.463048 17.6541 9.4253 31.3344 13.2296 -9.7284
lowerback 13.587 0.383005 5.74108
upperback -10.4703 1.51228 -2.14581
thorax -19.8693 -0.356769 -6.26158
lowerneck -15.9233 -7.07076 -4.28495
upperneck 19.303 -11.5324 12.2767
head 9.76724 -4.39318 3.39535
rclavicle -6.36111e-015 2.70347e-014
rhumerus 10.4877 -58.2625 -8.59472
rradius 28.1738
rwrist 44.3801
rhand 24.3601 -20.1616
rfingers 7.12502
rthumb 48.573 -402.103
lclavicle -6.36111e-015 2.70347e-014
lhumerus -3.30895 51.9927 2.13197
lradius 45.0398
lwrist -2.80406
lhand -9.65191 -11.3339
lfingers 7.12502
lthumb 16.3188 17.9995
rfemur -20.5327 21.8595 18.4751
rtibia -5.19446
rfoot -17.2614 -31.2843
rtoes 22.5126
lfemur -31.8405 -57.9247 26.4615
ltibia -9.76537
lfoot -65.0282 47.5041
ltoes 50.0373
